<?xml version="1.0" encoding="UTF-8"?>
<svg xmlns="http://www.w3.org/2000/svg" viewBox="0 0 200 200">
  <rect x="0" y="0" width="200" height="200" rx="16" fill="#181817"/>
  <g transform="translate(-406, 20)">
    <path fill="#efbf04" d="M492.12,44.69l4.57-6.49c7.69,5.08,14.58,10.38,20.57,15.44l6.96-5.35c-5.56-6.85-12.37-13.88-20.53-20.04l3.42-4.86-1.9-1.02,3.39-4.66-17.27-8.61-3.09,4.15-2.08-1.12-3.06,4.15c-31.41-13.52-63.83-9.27-63.83-9.27,0,0,26.65,4.3,56.53,19.17l-3.58,4.85,1.84,1.27-64.04,86.04v15.53h53.72v20.95h22.51v-20.95h16.24v-18.81h-16.24v-49.18l-21.8,31.2v17.98h-26.79l52.33-71.82,2.12,1.45Z"/>
    <path fill="#efbf04" d="M586.73,102.38c7.41-4.56,11.68-11.54,11.68-20.52,0-17.53-15.67-28.5-38.62-28.5-9.8,0-18.29,2.06-24.77,5.8,3.26,4.77,7.09,10.74,10.94,17.58,2.38-4.1,7.32-6.43,13.83-6.43,9.41,0,15.68,4.7,15.68,12.54s-6.13,12.26-15.68,12.26-15.39-4.7-15.39-12.26c0-1.17.15-2.25.41-3.27-4.41-4.13-10.83-10.1-16.44-15.26-4.42,4.62-6.91,10.56-6.91,17.53,0,8.98,4.13,15.96,11.54,20.52-9.55,4.84-15.11,12.83-15.11,23.51,0,18.81,16.67,30.64,41.9,30.64s42.18-11.83,42.18-30.64c0-10.69-5.56-18.67-15.25-23.51ZM559.8,139.57c-11.4,0-18.53-5.56-18.53-14.39s7.13-14.25,18.53-14.25,18.81,5.42,18.81,14.25-7.27,14.39-18.81,14.39Z"/>
  </g>
</svg>
